<?xml version="1.0" encoding="UTF-8" standalone="no"?>
<!-- Created with Inkscape (http://www.inkscape.org/) -->
<svg
   xmlns:dc="http://purl.org/dc/elements/1.1/"
   xmlns:cc="http://web.resource.org/cc/"
   xmlns:rdf="http://www.w3.org/1999/02/22-rdf-syntax-ns#"
   xmlns:svg="http://www.w3.org/2000/svg"
   xmlns="http://www.w3.org/2000/svg"
   xmlns:sodipodi="http://inkscape.sourceforge.net/DTD/sodipodi-0.dtd"
   xmlns:inkscape="http://www.inkscape.org/namespaces/inkscape"
   width="2296.2800px"
   height="868.94000px"
   id="svg2"
   sodipodi:version="0.32"
   inkscape:version="0.42.2"
   sodipodi:docbase="/home/sean/Desktop"
   sodipodi:docname="ImpiLinux-230x72.svg"
   inkscape:export-filename="/home/sean/Desktop/ImpiLinuxA.png"
   inkscape:export-xdpi="90.000359"
   inkscape:export-ydpi="90.000359">
  <defs
     id="defs4" />
  <sodipodi:namedview
     id="base"
     pagecolor="#ffffff"
     bordercolor="#666666"
     borderopacity="1.0"
     inkscape:pageopacity="1.0000000"
     inkscape:pageshadow="2"
     inkscape:zoom="0.45681680"
     inkscape:cx="1220.4680"
     inkscape:cy="546.84931"
     inkscape:document-units="px"
     inkscape:current-layer="layer1"
     inkscape:window-width="1272"
     inkscape:window-height="946"
     inkscape:window-x="0"
     inkscape:window-y="0" />
  <metadata
     id="metadata7">
    <rdf:RDF>
      <cc:Work
         rdf:about="">
        <dc:format>image/svg+xml</dc:format>
        <dc:type
           rdf:resource="http://purl.org/dc/dcmitype/StillImage" />
      </cc:Work>
    </rdf:RDF>
  </metadata>
  <g
     inkscape:label="Layer 1"
     inkscape:groupmode="layer"
     id="layer1">
    <g
       id="g1381"
       transform="matrix(0.100597,0.000000,0.000000,8.170883e-2,1022.311,339.7715)"
       inkscape:export-filename="/home/sean/Desktop/impiA.png"
       inkscape:export-xdpi="90.000000"
       inkscape:export-ydpi="90.000000">
      <path
         id="path1351"
         d="M 153.29361,763.06800 C 152.60611,762.81280 152.04361,762.18170 152.04361,761.66560 C 152.04361,760.66750 304.70157,561.93060 308.57605,557.88470 L 310.86090,555.49880 L 319.70225,559.04690 C 332.81269,564.30830 340.75201,566.51080 353.28132,568.36220 C 392.54542,574.16400 433.83533,560.53500 462.62256,532.27060 C 481.93116,513.31280 496.20386,486.49670 500.14583,461.77060 C 500.80346,457.64560 501.72906,453.76900 502.20271,453.15600 C 503.36203,451.65540 519.62608,450.84860 553.96683,450.58830 C 578.93708,450.39890 582.51112,450.56470 583.38668,451.95280 C 584.14851,453.16050 581.41273,459.53740 571.77500,479.01870 C 564.84042,493.03600 558.41657,505.25480 557.49977,506.17160 C 556.57122,507.10020 555.04504,507.58850 554.05429,507.27400 C 548.91170,505.64180 535.38795,504.94490 527.00975,505.88030 C 488.54110,510.17520 459.31516,539.44560 455.11563,577.88370 C 453.47574,592.89360 456.29880,609.41780 462.64689,621.96650 C 463.95342,624.54920 464.78749,627.27450 464.50036,628.02280 C 462.77989,632.50620 427.95155,660.01040 404.90128,675.08860 C 340.71098,717.07820 263.72806,745.58430 175.04361,760.20300 C 153.81546,763.70220 154.69133,763.58680 153.29361,763.06800 z "
         style="fill:#b5251d;fill-opacity:1.0000000" />
      <path
         id="path1361"
         d="M 613.28125,117.87500 C 611.78436,117.71225 609.13169,117.84310 604.18750,118.15625 C 569.43900,120.35714 526.12828,127.86163 491.34375,137.71875 C 458.84032,146.92945 429.71374,158.33489 398.84375,173.90625 C 366.86774,190.03550 325.03125,216.86259 325.03125,221.25000 C 325.03125,222.41280 330.43125,241.97125 337.03125,264.71875 C 343.63125,287.46625 349.03125,306.14075 349.03125,306.21875 C 349.03125,306.29684 357.91875,306.34030 368.78125,306.31250 C 384.32655,306.27261 390.30458,306.66155 396.81250,308.09375 C 423.88737,314.05204 446.46758,326.17910 465.21875,344.87500 C 484.89692,364.49521 498.94431,392.11565 502.59375,418.28125 C 502.97729,421.03125 503.69022,423.75505 504.15625,424.34375 C 505.02668,425.44346 526.10987,425.38775 571.75000,424.15625 L 593.96875,423.56250 L 596.90625,415.90625 C 610.37625,380.80074 622.01811,330.82065 626.71875,287.78125 C 628.93446,267.49415 629.24017,213.23157 627.25000,193.78125 C 624.60090,167.89091 618.67344,130.74128 615.37500,119.37500 C 615.12009,118.49658 614.77814,118.03775 613.28125,117.87500 z M 501.03125,213.28125 C 509.62202,213.28125 513.92259,213.76283 518.03125,215.15625 C 539.62292,222.47894 554.22952,238.85916 558.59375,260.65625 C 560.52611,270.30735 560.02219,279.42604 557.00000,289.15625 C 551.23570,307.71515 534.79980,323.20805 515.56250,328.21875 C 508.19073,330.13885 493.39534,330.12539 486.03125,328.18750 C 467.00480,323.18080 450.79669,307.50715 444.78125,288.28125 C 443.08274,282.85275 442.60559,278.92415 442.65625,270.78125 C 442.72871,259.13205 444.67710,251.79325 450.31250,241.78125 C 454.45105,234.42865 465.17489,224.01097 472.56250,220.15625 C 483.36740,214.51850 488.41297,213.28125 501.03125,213.28125 z "
         style="fill:#e7911a;fill-opacity:1.0000000;stroke:none" />
      <path
         id="path1683"
         d="M 776.24948,677.64350 C 768.73086,673.92190 767.65859,670.51630 767.22202,648.97200 C 767.01808,638.90770 767.13412,629.54620 767.47988,628.16850 C 768.05466,625.87840 768.51294,625.68970 772.82608,625.96720 L 777.54361,626.27060 L 778.04361,645.27060 C 778.54884,664.46930 779.19281,667.84640 782.59762,669.15300 C 785.61035,670.30910 792.59164,669.77550 794.81337,668.21940 C 799.02589,665.26880 799.52364,662.98960 800.04361,644.27060 L 800.54361,626.27060 L 805.54361,626.27060 L 810.54361,626.27060 L 810.54361,652.27060 L 810.54361,678.27060 L 806.21602,678.58190 C 802.54635,678.84590 801.80648,678.57980 801.34939,676.83190 C 801.05291,675.69820 800.75033,674.77250 800.67698,674.77480 C 800.60363,674.77710 798.32984,675.90210 795.62413,677.27480 C 789.34490,680.46050 782.21458,680.59620 776.24948,677.64350 z "
         style="fill:#b5251d;fill-opacity:1.0000000" />
      <path
         id="path1681"
         d="M 868.53125,605.78125 C 866.82625,605.78125 864.91002,606.30877 864.25000,606.96875 C 863.36359,607.85525 863.03122,617.09242 863.03125,642.28125 C 863.03125,667.47015 863.36361,676.67608 864.25000,677.56250 C 866.09373,679.40630 871.77065,679.06045 872.90625,677.03125 C 873.81601,675.40555 874.14417,675.42871 877.71875,677.50000 C 887.87079,683.38270 901.70544,677.75826 907.12500,665.53125 C 911.81860,654.94205 909.73010,638.42061 902.75000,630.93750 C 896.96936,624.74030 884.96867,622.70384 878.28125,626.78125 C 876.48046,627.87915 874.79293,628.78122 874.53125,628.78125 C 874.26954,628.78125 874.03122,624.13377 874.03125,618.46875 C 874.03125,607.11555 873.44798,605.78122 868.53125,605.78125 z M 885.62500,633.90625 C 888.02167,633.67932 890.42921,634.26403 892.43750,635.84375 C 896.89279,639.34835 898.43298,643.49872 898.43750,651.78125 C 898.44201,660.07525 896.38431,665.86128 892.50000,668.40625 C 886.47007,672.35725 878.88306,670.19636 875.46875,663.59375 C 873.06812,658.95145 873.09539,646.51436 875.53125,641.40625 C 877.64082,636.98231 881.63055,634.28447 885.62500,633.90625 z "
         style="fill:#b5251d;fill-opacity:1.0000000" />
      <path
         id="path1677"
         d="M 968.00550,677.52060 C 964.73468,675.87130 962.93781,674.06940 961.27420,670.77060 C 959.10868,666.47660 959.01713,665.35510 959.27420,646.27060 L 959.54361,626.27060 L 963.94450,625.95580 C 966.78843,625.75230 968.64037,626.10610 969.17919,626.95580 C 969.63778,627.67900 970.01988,636.50360 970.02830,646.56610 C 970.04343,664.64810 970.07224,664.89020 972.49816,667.31610 C 977.04455,671.86250 987.14754,670.00700 990.03334,664.09560 C 990.96364,662.19000 991.59651,655.57550 991.97803,643.77060 L 992.54361,626.27060 L 996.94450,625.95580 C 999.78841,625.75230 1001.6404,626.10610 1002.1792,626.95580 C 1003.5630,629.13800 1003.2512,676.16310 1001.8436,677.57060 C 999.87421,679.54010 994.26472,679.05230 993.06313,676.80710 C 992.03271,674.88180 991.92216,674.89150 987.37900,677.30710 C 981.31460,680.53160 974.13334,680.61070 968.00550,677.52060 z "
         style="fill:#b5251d;fill-opacity:1.0000000" />
      <path
         id="path1675"
         d="M 1159.3691,678.36600 C 1153.1964,675.57510 1152.5802,673.39610 1152.2142,653.06810 C 1151.9113,636.24420 1151.7400,634.77060 1150.0866,634.77060 C 1145.4469,634.77060 1144.5251,626.81720 1149.0436,625.77070 C 1151.1276,625.28800 1151.5879,624.53270 1151.8101,621.23120 C 1152.2655,614.46450 1152.9284,613.00500 1156.5673,610.75600 C 1161.9287,607.44250 1162.9110,608.42970 1163.2507,617.47280 L 1163.5436,625.27060 L 1167.0349,625.60200 C 1170.8473,625.96380 1172.0049,627.09590 1172.0283,630.48550 C 1172.0457,632.99900 1169.3918,634.77060 1165.6093,634.77060 L 1163.0436,634.77060 L 1163.0436,650.18890 C 1163.0436,658.66890 1163.3167,666.31890 1163.6506,667.18890 C 1164.0020,668.10460 1165.4242,668.77060 1167.0281,668.77060 C 1168.5520,668.77060 1170.2676,669.33570 1170.8408,670.02620 C 1172.4357,671.94800 1173.1675,676.11120 1172.1772,677.62950 C 1170.8864,679.60870 1163.1068,680.05600 1159.3691,678.36600 z "
         style="fill:#b5251d;fill-opacity:1.0000000" />
      <path
         id="path1673"
         d="M 1228.0055,677.52060 C 1224.7347,675.87130 1222.9378,674.06940 1221.2742,670.77060 C 1219.1087,666.47660 1219.0171,665.35510 1219.2742,646.27060 L 1219.5436,626.27060 L 1223.9445,625.95580 C 1226.7884,625.75230 1228.6404,626.10610 1229.1792,626.95580 C 1229.6378,627.67900 1230.0199,636.42250 1230.0283,646.38580 C 1230.0425,663.18540 1230.1941,664.69230 1232.1162,667.13580 C 1235.9745,672.04080 1247.1294,670.14360 1249.9908,664.09560 C 1250.8572,662.26430 1251.5412,655.11530 1251.9355,643.77060 L 1252.5436,626.27060 L 1256.5037,625.94780 C 1262.8998,625.42620 1263.0436,625.99990 1263.0436,652.02750 C 1263.0436,665.88320 1262.6355,675.66480 1262.0084,676.83640 C 1260.5671,679.52950 1254.5095,679.50970 1253.0631,676.80710 C 1252.0327,674.88180 1251.9222,674.89150 1247.3790,677.30710 C 1241.3146,680.53160 1234.1333,680.61070 1228.0055,677.52060 z "
         style="fill:#b5251d;fill-opacity:1.0000000" />
      <path
         id="path1671"
         d="M 1487.0000,624.81250 C 1482.9951,624.91216 1478.9491,625.52385 1476.5312,626.62500 C 1471.5411,628.89770 1465.7128,635.26711 1463.9375,640.37500 C 1462.2474,645.23760 1462.2268,657.85409 1463.9062,663.62500 C 1465.4435,668.90730 1472.9482,676.81610 1478.0312,678.50000 C 1479.9563,679.13760 1484.7527,679.58404 1488.6562,679.46875 C 1497.6688,679.20245 1504.0078,675.62883 1508.5312,668.31250 C 1511.4231,663.63500 1511.5313,662.92953 1511.5312,652.34375 C 1511.5312,642.83315 1511.2377,640.69683 1509.3438,637.15625 C 1506.8485,632.49145 1502.0700,628.11872 1497.3125,626.12500 C 1494.9677,625.14240 1491.0049,624.71284 1487.0000,624.81250 z M 1488.5312,634.06250 C 1493.4884,634.55311 1498.2528,637.79495 1500.1562,643.56250 C 1501.7152,648.28610 1500.8099,660.94830 1498.6875,664.18750 C 1497.7701,665.58760 1495.9090,667.46155 1494.5625,668.34375 C 1491.9076,670.08325 1485.4420,671.08727 1483.0312,670.12500 C 1480.5653,669.14060 1476.9513,665.47972 1475.2812,662.28125 C 1472.9486,657.81415 1473.1733,646.07256 1475.6875,641.15625 C 1478.4031,635.84585 1483.5741,633.57189 1488.5312,634.06250 z "
         style="fill:#b5251d;fill-opacity:1.0000000" />
      <path
         id="path1667"
         d="M 1739.5625,624.65625 C 1734.6290,624.75704 1729.7313,625.62800 1726.5000,627.25000 C 1720.6940,630.16450 1716.7491,635.33673 1717.2188,639.43750 C 1717.5094,641.97480 1717.9615,642.29252 1721.6562,642.56250 C 1725.4502,642.83980 1725.9376,642.59598 1727.8750,639.31250 C 1730.2484,635.28980 1733.3413,633.78122 1739.1562,633.78125 C 1745.9487,633.78125 1750.0313,636.81850 1750.0312,641.87500 C 1750.0312,644.38310 1747.5859,645.33884 1736.3438,647.15625 C 1731.2797,647.97485 1725.5132,649.40315 1723.5312,650.34375 C 1712.1920,655.72455 1712.0548,672.59747 1723.3125,677.87500 C 1729.4253,680.74080 1740.1556,680.06398 1746.3438,676.43750 L 1750.8438,673.81250 L 1752.5000,676.34375 C 1753.9115,678.49805 1754.7840,678.82118 1758.3438,678.56250 C 1762.1629,678.28490 1762.5265,678.05942 1762.2500,675.78125 C 1762.0832,674.40625 1761.6819,664.95622 1761.3750,654.78125 C 1760.7192,633.03635 1759.7775,629.90924 1752.7500,626.71875 C 1749.4703,625.22980 1744.4960,624.55546 1739.5625,624.65625 z M 1749.1875,654.03125 C 1749.8831,654.16609 1750.0336,655.09889 1750.0312,657.46875 C 1750.0262,662.48705 1746.8494,667.55254 1742.5625,669.34375 C 1732.7661,673.43695 1723.1093,668.10958 1727.0312,660.78125 C 1728.1287,658.73065 1731.5223,657.48473 1740.5312,655.78125 C 1743.8313,655.15725 1747.3188,654.39920 1748.2812,654.12500 C 1748.6434,654.02185 1748.9556,653.98630 1749.1875,654.03125 z "
         style="fill:#b5251d;fill-opacity:1.0000000" />
      <path
         id="path1663"
         d="M 2030.5436,678.28060 C 2025.2095,676.41070 2018.6954,669.17020 2017.0455,663.27730 C 2015.3986,657.39540 2015.3779,646.36500 2017.0040,641.23130 C 2020.3839,630.56070 2028.4461,624.77060 2039.9242,624.77060 C 2048.6571,624.77060 2054.2895,627.51280 2058.1928,633.66480 C 2062.0264,639.70680 2061.6569,641.99570 2056.6484,643.23250 C 2053.1305,644.10120 2052.5977,643.96760 2051.1484,641.85420 C 2047.0328,635.85270 2044.2554,633.77060 2040.3705,633.77440 C 2035.3434,633.77930 2030.2758,636.97070 2028.4834,641.26040 C 2026.6217,645.71610 2026.6078,658.79190 2028.4601,663.22500 C 2030.1176,667.19210 2033.4572,669.63900 2038.2830,670.42210 C 2043.3909,671.25100 2047.8011,668.57320 2050.1780,663.19960 C 2052.1698,658.69700 2052.6241,658.40190 2057.0436,658.74110 C 2061.1611,659.05720 2062.4512,661.00560 2061.1512,664.94480 C 2057.2720,676.69860 2043.3430,682.76760 2030.5436,678.28060 z "
         style="fill:#b5251d;fill-opacity:1.0000000" />
      <path
         id="path1661"
         d="M 2130.8438,624.78125 C 2123.4156,624.78125 2121.5485,625.15370 2116.9375,627.56250 C 2112.7927,629.72770 2111.1078,631.36044 2109.2188,635.03125 C 2106.2726,640.75595 2107.2580,642.78122 2113.0625,642.78125 C 2116.3242,642.78125 2117.1159,642.28429 2118.9062,639.25000 C 2121.2506,635.27640 2124.3587,633.78122 2130.1562,633.78125 C 2136.9168,633.78125 2141.0311,636.81490 2141.0312,641.81250 C 2141.0312,644.37020 2138.9112,645.29116 2129.5312,646.71875 C 2118.0102,648.47225 2114.1778,649.78141 2110.5000,653.25000 C 2102.5923,660.70790 2104.5745,673.30893 2114.3750,677.90625 C 2120.4450,680.75365 2131.1784,680.06888 2137.3750,676.43750 C 2141.7860,673.85240 2141.9141,673.83704 2142.5312,675.78125 C 2143.2418,678.02035 2146.3830,679.08566 2150.6875,678.59375 C 2153.1018,678.31785 2153.4884,677.88372 2153.2188,675.78125 C 2153.0424,674.40625 2152.5980,664.73122 2152.2188,654.28125 C 2151.4250,632.40755 2150.7558,630.26639 2143.7500,626.87500 C 2140.3722,625.23980 2137.5092,624.78122 2130.8438,624.78125 z M 2139.0312,654.46875 C 2141.0895,654.60049 2141.3894,656.15431 2140.6562,660.06250 C 2139.8044,664.60360 2137.3680,667.73272 2133.4375,669.37500 C 2125.5518,672.66980 2117.0311,669.98706 2117.0312,664.21875 C 2117.0312,660.51425 2120.2264,658.08934 2126.7188,656.78125 C 2129.9305,656.13415 2134.2759,655.23315 2136.3750,654.78125 C 2137.4826,654.54282 2138.3452,654.42484 2139.0312,654.46875 z "
         style="fill:#b5251d;fill-opacity:1.0000000" />
      <path
         id="path1657"
         d="M 1055.4942,677.50260 C 1055.2266,676.80520 1055.1282,664.99270 1055.2756,651.25260 L 1055.5436,626.27060 L 1059.8712,625.95940 C 1063.5267,625.69640 1064.2816,625.96470 1064.7319,627.68660 C 1065.2568,629.69380 1065.3302,629.68700 1069.4921,627.24790 C 1075.2301,623.88520 1084.7674,623.78930 1090.4552,627.03710 C 1097.5685,631.09890 1098.4935,634.36900 1098.8812,656.82550 C 1099.2607,678.81140 1099.1608,679.14490 1092.3634,678.58520 L 1088.5436,678.27060 L 1088.0436,659.27060 C 1087.7161,646.82510 1087.1150,639.52210 1086.3013,638.10070 C 1083.3173,632.88870 1073.9625,633.03780 1068.9407,638.37750 C 1066.6269,640.83770 1066.5326,641.53960 1066.2265,658.57690 C 1066.0391,669.00670 1065.4776,676.74770 1064.8540,677.49910 C 1063.4770,679.15820 1056.1306,679.16100 1055.4942,677.50260 z "
         style="fill:#b5251d;fill-opacity:1.0000000" />
      <path
         id="path1655"
         d="M 1400.2891,677.61610 C 1399.3749,676.70200 1399.0436,670.83720 1399.0436,655.57060 L 1399.0436,634.77060 L 1396.7936,634.75530 C 1393.1164,634.73030 1391.8683,633.34280 1392.2194,629.67020 C 1392.4954,626.78320 1392.9889,626.20310 1395.5405,625.76570 C 1398.3711,625.28060 1398.5789,624.91950 1399.2843,619.26140 C 1399.6950,615.96650 1400.8534,612.14560 1401.8584,610.77060 C 1404.3835,607.31610 1409.7771,604.77140 1414.5436,604.78590 C 1421.2465,604.80610 1423.0436,605.65600 1423.0436,608.80550 C 1423.0436,613.71010 1422.1356,614.77060 1417.9366,614.77060 C 1412.8439,614.77060 1409.8061,617.65350 1410.2346,622.07960 C 1410.5233,625.06140 1410.8387,625.30340 1415.0436,625.77060 C 1419.1474,626.22660 1419.5732,626.53040 1419.8794,629.22130 C 1420.2897,632.82720 1418.0107,634.77060 1413.3720,634.77060 L 1410.0826,634.77060 L 1409.8131,656.52060 L 1409.5436,678.27060 L 1405.5391,678.56610 C 1403.2903,678.73210 1400.9885,678.31560 1400.2891,677.61610 z "
         style="fill:#b5251d;fill-opacity:1.0000000" />
      <path
         id="path1653"
         d="M 1562.2891,677.61610 C 1561.3651,676.69220 1561.0436,670.24800 1561.0436,652.65240 C 1561.0436,639.60740 1561.3167,628.22240 1561.6506,627.35240 C 1562.5037,625.12920 1569.6213,625.19360 1570.8761,627.43590 C 1571.7249,628.95250 1572.0537,628.90790 1574.5607,626.93590 C 1578.8007,623.60070 1588.8955,624.33640 1590.3342,628.08550 C 1590.6440,628.89290 1590.1429,631.06480 1589.2205,632.91210 C 1587.6666,636.02440 1587.2356,636.24780 1583.3435,635.95880 C 1578.2547,635.58090 1575.3288,636.99840 1573.8019,640.58140 C 1573.1716,642.06050 1572.4056,651.14560 1572.0998,660.77060 L 1571.5436,678.27060 L 1567.5391,678.56610 C 1565.2903,678.73210 1562.9885,678.31560 1562.2891,677.61610 z "
         style="fill:#b5251d;fill-opacity:1.0000000" />
      <path
         id="path1651"
         d="M 1816.2891,677.61610 C 1815.3749,676.70200 1815.0436,670.83720 1815.0436,655.57060 L 1815.0436,634.77060 L 1812.7936,634.75530 C 1809.1164,634.73030 1807.8683,633.34280 1808.2194,629.67020 C 1808.4940,626.79820 1808.9941,626.20220 1811.4880,625.77480 C 1814.2619,625.29950 1814.4957,624.88320 1815.5268,618.58260 C 1816.7255,611.25770 1818.6977,608.27590 1823.7615,606.13260 C 1827.1333,604.70550 1832.9747,604.37750 1836.7936,605.40090 C 1838.4480,605.84430 1839.0436,606.74550 1839.0436,608.80550 C 1839.0436,613.71010 1838.1356,614.77060 1833.9366,614.77060 C 1828.8439,614.77060 1825.8061,617.65350 1826.2346,622.07960 C 1826.5233,625.06140 1826.8387,625.30340 1831.0436,625.77060 C 1835.0896,626.22020 1835.5761,626.55420 1835.8659,629.08110 C 1836.3145,632.99400 1834.4643,634.77060 1829.9407,634.77060 L 1826.0826,634.77060 L 1825.8131,656.52060 L 1825.5436,678.27060 L 1821.5391,678.56610 C 1819.2903,678.73210 1816.9885,678.31560 1816.2891,677.61610 z "
         style="fill:#b5251d;fill-opacity:1.0000000" />
      <path
         id="path1649"
         d="M 1882.1079,676.89070 C 1880.5414,673.96370 1880.6648,628.54940 1882.2436,626.97060 C 1883.9242,625.29000 1889.5516,625.47290 1891.0317,627.25630 C 1892.1111,628.55690 1892.5791,628.49460 1894.7890,626.75630 C 1898.1484,624.11380 1905.9278,624.04650 1909.1211,626.63240 C 1911.3319,628.42250 1911.3625,628.64350 1909.9170,632.38240 C 1908.4912,636.07010 1908.2147,636.25440 1904.5553,635.95570 C 1894.1076,635.10300 1892.8399,637.62890 1892.1018,660.77060 L 1891.5436,678.27060 L 1887.3579,678.57500 C 1884.0145,678.81810 1882.9580,678.47920 1882.1079,676.89070 z "
         style="fill:#b5251d;fill-opacity:1.0000000" />
      <path
         id="path1647"
         d="M 1956.2891,677.61610 C 1954.8398,676.16680 1954.4864,629.19760 1955.9080,626.95580 C 1956.4468,626.10610 1958.2988,625.75230 1961.1427,625.95580 L 1965.5436,626.27060 L 1965.5436,652.27060 L 1965.5436,678.27060 L 1961.5391,678.56610 C 1959.2903,678.73210 1956.9885,678.31560 1956.2891,677.61610 z "
         style="fill:#b5251d;fill-opacity:1.0000000" />
      <path
         id="path1645"
         d="M 523.04361,646.25990 C 502.02918,640.54030 484.82221,623.34710 479.39511,602.64630 C 476.80972,592.78470 477.22590,579.12290 480.41183,569.27060 C 487.07150,548.67620 505.01299,532.65510 526.25145,528.33760 C 530.49076,527.47580 535.79724,526.77060 538.04361,526.77060 C 545.26606,526.77060 557.33761,529.80420 565.04361,533.55560 C 575.00723,538.40620 587.17073,550.38600 591.71749,559.82660 C 596.58908,569.94180 598.31923,577.12920 598.31895,587.25050 C 598.31854,602.42670 593.79722,614.95480 584.12719,626.57450 C 578.21409,633.67980 566.73240,641.64100 557.90164,644.75890 C 549.57616,647.69840 531.23107,648.48830 523.04361,646.25990 z "
         style="fill:#da6516;fill-opacity:1.0000000" />
      <path
         id="path1579"
         d="M 1955.6696,616.23850 C 1954.6349,613.54210 1954.9626,608.25170 1956.2436,606.97060 C 1957.6140,605.60030 1962.8996,605.39280 1964.8547,606.63270 C 1965.7225,607.18300 1966.0605,609.12190 1965.8547,612.36740 L 1965.5436,617.27060 L 1960.9196,617.57030 C 1957.3787,617.79980 1956.1491,617.48780 1955.6696,616.23850 z "
         style="fill:#b5251d;fill-opacity:1.0000000" />
      <path
         id="path1577"
         d="M 1182.0938,355.78125 C 1165.1940,355.78125 1155.4443,359.59006 1143.5312,370.90625 C 1138.5598,375.62875 1135.8913,377.53519 1135.5625,376.62500 C 1135.2913,375.87420 1134.9608,371.68125 1134.8125,367.28125 L 1134.5312,359.28125 L 1123.0312,359.28125 L 1111.5312,359.28125 L 1111.2812,469.71875 C 1111.0792,557.40865 1111.2853,580.30510 1112.2812,580.93750 C 1114.1276,582.10970 1133.8365,581.95813 1136.0938,580.75000 C 1137.9525,579.75520 1138.0313,578.27253 1138.0312,542.75000 C 1138.0312,502.85430 1138.0441,502.86836 1143.1250,508.40625 C 1147.1492,512.79235 1156.9962,518.67294 1163.9688,520.84375 C 1172.1136,523.37955 1186.7778,523.59669 1195.5312,521.31250 C 1207.3077,518.23950 1217.8151,512.19441 1226.6562,503.37500 C 1233.5950,496.45330 1235.5192,493.75685 1239.8438,484.78125 C 1247.7559,468.35995 1249.5000,459.92625 1249.5000,438.28125 C 1249.5000,422.61435 1249.1959,419.10001 1247.1562,411.31250 C 1237.6445,374.99500 1215.1181,355.78125 1182.0938,355.78125 z M 1179.5625,377.28125 C 1187.7293,377.28125 1189.2097,377.57305 1195.2188,380.53125 C 1206.8432,386.25395 1215.3846,397.52395 1219.6875,412.78125 C 1222.3009,422.04835 1222.3639,454.27975 1219.7812,463.78125 C 1215.5403,479.38395 1206.4042,491.53796 1194.6250,497.28125 C 1189.7595,499.65365 1187.1785,500.23004 1180.1250,500.46875 C 1167.1093,500.90915 1158.6239,497.39756 1149.6875,487.84375 C 1139.7078,477.17465 1135.6987,463.51225 1135.7188,440.28125 C 1135.7402,415.38645 1140.3717,401.25334 1152.4688,389.15625 C 1161.6282,379.99685 1167.8521,377.28125 1179.5625,377.28125 z "
         style="fill:#000000" />
      <path
         id="path1573"
         d="M 358.04361,530.06380 C 337.90992,526.56500 320.65278,517.83170 306.86357,504.16330 C 294.26719,491.67730 285.61519,476.61100 281.65765,460.27060 C 279.60119,451.77970 279.07980,441.64610 280.67049,441.08410 C 281.74087,440.70600 392.78155,522.88650 394.23641,525.13350 C 395.52293,527.12060 393.07320,528.47270 386.10003,529.62430 C 379.44974,530.72250 363.29082,530.97570 358.04361,530.06380 z "
         style="fill:#da6516;fill-opacity:1.0000000" />
      <path
         id="path1521"
         d="M 1899.0293,522.59320 C 1880.1512,520.86910 1864.5325,511.32750 1858.0089,497.53330 C 1852.1023,485.04390 1851.9642,483.13690 1852.2676,418.27060 L 1852.5436,359.27060 L 1864.4018,358.98800 C 1872.0351,358.80600 1876.7371,359.10130 1877.5993,359.81690 C 1878.6831,360.71640 1878.9974,371.83570 1879.2465,418.09950 C 1879.5525,474.91790 1879.5684,475.30460 1881.8251,480.77060 C 1885.6058,489.92790 1891.6710,495.44000 1900.9751,498.17440 C 1918.6353,503.36460 1940.0905,495.12440 1948.3290,479.98760 C 1953.9875,469.59110 1954.2587,466.74650 1954.9279,410.77060 L 1955.5436,359.27060 L 1966.5436,358.97980 C 1972.5936,358.81980 1978.5588,358.94150 1979.7996,359.25030 L 1982.0556,359.81180 L 1981.7996,439.54120 L 1981.5436,519.27060 L 1970.0436,519.27060 L 1958.5436,519.27060 L 1958.2529,509.77990 C 1958.0930,504.56000 1957.5562,499.88320 1957.0599,499.38700 C 1956.5236,498.85060 1954.0950,500.74160 1951.0715,504.04980 C 1938.0687,518.27690 1920.4616,524.55060 1899.0293,522.59320 z "
         style="fill:#000000" />
      <path
         id="path1519"
         d="M 775.27035,518.59740 C 773.45350,516.78050 773.48516,301.91660 775.30264,299.43110 C 776.40508,297.92340 778.23969,297.74420 790.05264,297.98990 L 803.54361,298.27060 L 803.54361,408.77060 L 803.54361,519.27060 L 790.02035,519.54740 C 780.35032,519.74530 776.14756,519.47460 775.27035,518.59740 z "
         style="fill:#000000" />
      <path
         id="path1517"
         d="M 852.73870,519.13240 C 852.35640,518.75010 852.04361,483.01740 852.04361,439.72640 C 852.04361,373.58730 852.26658,360.83050 853.43961,359.85700 C 854.35322,359.09870 858.41341,358.79730 865.18961,358.98450 L 875.54361,359.27060 L 876.05414,368.44780 C 876.33493,373.49530 876.90020,377.96060 877.31029,378.37070 C 877.72038,378.78070 879.66823,377.23260 881.63885,374.93040 C 886.70726,369.00910 897.10501,361.87420 904.89725,358.97050 C 912.84198,356.01000 930.24767,354.84010 939.07017,356.67360 C 951.24639,359.20410 961.61798,366.50300 967.27106,376.51970 C 968.90097,379.40770 970.41880,381.77060 970.64403,381.77060 C 970.86925,381.77060 974.76379,378.04890 979.29857,373.50010 C 992.27696,360.48160 1003.4182,355.77060 1021.2278,355.77060 C 1046.0562,355.77060 1060.8629,366.13810 1067.7054,388.31340 C 1069.4065,393.82640 1069.5436,398.93170 1069.5436,456.77060 L 1069.5436,519.27060 L 1056.5436,519.27060 L 1043.5436,519.27060 L 1043.0186,459.77060 C 1042.4276,392.80560 1042.6832,395.06740 1034.7990,387.02580 C 1029.0941,381.20690 1023.5798,379.25640 1013.0436,379.33030 C 1006.0694,379.37920 1003.5140,379.86170 998.80815,382.01830 C 987.56492,387.17070 982.07911,393.15300 977.86776,404.85360 C 975.58977,411.18260 975.55112,412.01170 975.05085,465.27060 L 974.54361,519.27060 L 961.54361,519.27060 L 948.54361,519.27060 L 947.98776,461.27060 C 947.49017,409.34970 947.24577,402.70520 945.65594,397.87560 C 942.86281,389.39060 939.52342,385.15380 933.16907,382.03330 C 928.30206,379.64310 926.39761,379.28150 919.04361,379.35100 C 912.76317,379.41040 909.04302,380.01640 904.79695,381.67160 C 897.45905,384.53220 888.92242,392.27510 885.58427,399.09800 C 880.29682,409.90520 879.89892,414.24420 879.19529,468.77060 L 878.54361,519.27060 L 865.98870,519.54910 C 859.08349,519.70220 853.12099,519.51470 852.73870,519.13240 z "
         style="fill:#000000" />
      <path
         id="path1515"
         d="M 1283.7387,519.13240 C 1283.3564,518.75010 1283.0436,483.01740 1283.0436,439.72640 C 1283.0436,373.69990 1283.2679,360.82940 1284.4354,359.86040 C 1285.3612,359.09210 1289.7976,358.79990 1297.6854,358.98800 L 1309.5436,359.27060 L 1309.5436,439.27060 L 1309.5436,519.27060 L 1296.9887,519.54910 C 1290.0835,519.70220 1284.1210,519.51470 1283.7387,519.13240 z "
         style="fill:#000000" />
      <path
         id="path1513"
         d="M 1441.2505,518.57750 C 1440.3226,517.64970 1440.0471,492.27580 1440.0589,408.82060 C 1440.0673,349.11810 1440.4396,299.69490 1440.8861,298.99130 C 1441.4964,298.02950 1445.1532,297.78130 1455.6208,297.99130 L 1469.5436,298.27060 L 1470.0436,395.77060 L 1470.5436,493.27060 L 1524.5436,493.77060 L 1578.5436,494.27060 L 1578.5436,506.77060 L 1578.5436,519.27060 L 1510.5005,519.52750 C 1458.4083,519.72420 1442.1744,519.50150 1441.2505,518.57750 z "
         style="fill:#000000" />
      <path
         id="path1511"
         d="M 1611.5153,518.55070 C 1611.2466,517.84670 1611.1431,481.72060 1611.2852,438.27060 L 1611.5436,359.27060 L 1624.5436,359.27060 L 1637.5436,359.27060 L 1637.5436,439.27060 L 1637.5436,519.27060 L 1624.7737,519.55070 C 1615.1117,519.76250 1611.8850,519.51920 1611.5153,518.55070 z "
         style="fill:#000000" />
      <path
         id="path1509"
         d="M 1680.5153,518.55070 C 1680.2466,517.84670 1680.1431,481.72060 1680.2852,438.27060 L 1680.5436,359.27060 L 1692.0436,359.27060 L 1703.5436,359.27060 L 1703.8112,368.27060 C 1703.9584,373.22060 1704.2796,377.82760 1704.5251,378.50840 C 1704.7864,379.23310 1707.9911,376.74140 1712.2575,372.49620 C 1724.0982,360.71440 1736.7048,355.81370 1755.2444,355.78540 C 1767.5095,355.76670 1773.4781,357.02260 1783.7210,361.77710 C 1793.6932,366.40600 1800.0656,372.45610 1804.1405,381.16400 C 1809.9119,393.49710 1810.0850,395.92420 1809.8016,460.49510 L 1809.5436,519.27060 L 1796.5436,519.27060 L 1783.5436,519.27060 L 1783.0026,461.77060 C 1782.5269,411.20470 1782.2561,403.65520 1780.7573,399.16670 C 1774.7213,381.09160 1751.1775,373.69550 1730.2193,383.29050 C 1719.0401,388.40850 1713.1407,395.49810 1709.3707,408.34550 C 1707.8515,413.52250 1707.5633,420.90000 1707.0878,466.77060 L 1706.5436,519.27060 L 1693.7737,519.55070 C 1684.1117,519.76250 1680.8850,519.51920 1680.5153,518.55070 z "
         style="fill:#000000" />
      <path
         id="path1507"
         d="M 2008.0436,518.73550 C 2008.0436,518.13820 2020.8608,499.40770 2036.5264,477.11210 C 2059.0693,445.02840 2064.8181,436.21780 2064.0930,434.86290 C 2063.5891,433.92140 2051.6748,416.81780 2037.6167,396.85490 C 2023.5586,376.89200 2012.3052,360.15640 2012.6091,359.66470 C 2012.9130,359.17300 2020.0779,358.77060 2028.5312,358.77060 C 2040.6755,358.77060 2044.2072,359.07720 2045.3614,360.23130 C 2046.7753,361.64520 2073.7611,402.91850 2077.6069,409.54920 C 2078.6528,411.35240 2080.1642,412.70150 2080.9656,412.54720 C 2081.7669,412.39280 2090.2256,401.24640 2099.7625,387.77730 C 2109.2995,374.30820 2117.9967,362.25970 2119.0896,361.00270 C 2121.0140,358.78940 2121.5413,358.72610 2135.8101,358.99400 C 2148.3602,359.22960 2150.5281,359.49940 2150.4391,360.81440 C 2150.3816,361.66350 2138.5691,378.36970 2124.1891,397.93940 C 2109.8091,417.50900 2098.0436,434.06200 2098.0436,434.72370 C 2098.0436,435.38550 2111.0815,454.44380 2127.0167,477.07570 C 2142.9519,499.70750 2155.6297,518.58450 2155.1897,519.02460 C 2154.7497,519.46460 2147.4493,519.70000 2138.9666,519.54760 L 2123.5436,519.27060 L 2103.2977,488.77060 C 2092.1625,471.99560 2082.4875,458.27060 2081.7977,458.27060 C 2081.1079,458.27060 2071.3186,471.99560 2060.0436,488.77060 L 2039.5436,519.27060 L 2023.7936,519.54600 C 2012.9602,519.73550 2008.0436,519.48240 2008.0436,518.73550 z "
         style="fill:#000000" />
      <path
         id="path1505"
         d="M 360.64571,453.53140 C 322.20186,424.78800 290.26862,400.50610 289.68294,399.57160 C 288.86622,398.26840 289.16692,396.87030 290.97338,393.57160 C 296.72725,383.06460 309.00196,369.15690 311.63097,370.16580 C 312.43988,370.47620 344.81365,394.41660 383.57267,423.36660 C 427.32365,456.04530 454.04361,476.63110 454.04361,477.65960 C 454.04361,482.80420 437.22562,505.08410 433.00453,505.53140 C 431.11276,505.73190 414.37788,493.70550 360.64571,453.53140 z "
         style="fill:#da6516;fill-opacity:1.0000000" />
      <path
         id="path1417"
         d="M 405.52495,393.72410 C 371.73701,368.49200 350.42331,351.93650 350.23152,350.77490 C 349.77712,348.02260 354.78715,347.25490 372.54361,347.35620 C 385.85639,347.43210 388.55039,347.74740 396.49427,350.15990 C 414.33201,355.57710 430.52200,366.19100 442.01320,380.00130 C 449.15703,388.58680 458.13055,406.09400 460.60352,416.27060 C 462.54477,424.25920 463.03382,433.89470 461.52495,434.42510 C 460.96468,434.62200 435.76468,416.30660 405.52495,393.72410 z "
         style="fill:#da6516;fill-opacity:1.0000000" />
      <path
         id="path1355"
         d="M 1283.4827,327.47250 C 1283.2087,326.75850 1283.1103,319.89600 1283.2641,312.22250 L 1283.5436,298.27060 L 1296.5436,298.27060 L 1309.5436,298.27060 L 1309.8196,313.52060 L 1310.0957,328.77060 L 1297.0383,328.77060 C 1287.2565,328.77060 1283.8559,328.44500 1283.4827,327.47250 z "
         style="fill:#000000" />
      <path
         id="path1353"
         d="M 1611.2674,313.54990 L 1611.5436,298.27060 L 1624.5436,298.27060 L 1637.5436,298.27060 L 1637.5436,313.27060 L 1637.5436,328.27060 L 1624.2674,328.54990 L 1610.9912,328.82910 L 1611.2674,313.54990 z "
         style="fill:#000000" />
      <path
         id="path1901"
         d="M 123.55020,746.09200 C 121.79317,737.99420 117.71875,711.31590 116.04323,696.93830 C 113.02447,671.03430 112.24747,652.33310 112.81982,619.35650 C 113.49998,580.16880 115.16053,563.82380 122.17353,527.28690 C 123.59871,519.86190 125.33370,513.17720 126.02906,512.43190 C 127.09125,511.29350 128.46982,511.34520 134.65264,512.75490 C 143.97910,514.88140 161.75662,514.96960 170.53863,512.93290 C 187.16163,509.07780 201.22460,501.51990 212.59339,490.33140 C 238.90893,464.43320 245.39042,425.08270 228.82485,391.78690 C 222.36535,378.80370 212.53194,367.76550 199.68623,359.07810 C 194.76380,355.74910 192.54160,353.65200 192.91248,352.68550 C 195.67787,345.47900 223.42685,310.25180 246.17772,285.06550 C 266.40881,262.66870 302.11616,229.28690 305.84214,229.28690 C 306.93715,229.28690 308.03837,231.37390 309.40388,236.03690 C 323.54298,284.32010 329.53752,305.77790 329.16109,306.75880 C 328.91086,307.41090 324.94993,309.75070 320.35902,311.95830 C 274.61690,333.95420 245.52371,379.95600 245.52371,430.28690 C 245.52371,465.12030 259.52060,498.40380 284.68576,523.41110 C 290.09015,528.78150 294.49728,533.53810 294.47938,533.98130 C 294.40731,535.76530 127.89286,750.78880 126.35660,751.08160 C 125.09028,751.32300 124.43078,750.15040 123.55020,746.09200 z "
         style="fill:#da6516;fill-opacity:1.0000000" />
      <path
         id="path1419"
         d="M 167.86758,486.70180 C 188.08284,481.48640 204.73091,464.73630 210.02401,444.28690 C 212.34164,435.33300 211.69690,419.08400 208.69745,410.85480 C 202.41185,393.60980 188.87335,380.26090 171.51192,374.18990 C 162.07235,370.88910 144.76688,370.83510 135.38660,374.07710 C 90.739730,389.50830 80.276970,445.70110 116.48075,475.61520 C 122.08952,480.24950 131.86415,485.17330 138.78407,486.85010 C 146.23351,488.65520 160.57952,488.58200 167.86758,486.70180 z "
         style="fill:#e7911a;fill-opacity:1.0000000;stroke:none" />
      <rect
         y="16.936190"
         x="17.512512"
         height="836.22144"
         width="2263.4895"
         id="rect2639"
         style="opacity:1.0000000;fill:none;fill-opacity:1.0000000;fill-rule:evenodd;stroke:#da6516;stroke-width:3.0000000;stroke-linecap:square;stroke-linejoin:miter;stroke-miterlimit:4.0000000;stroke-dasharray:9.0000000 3.0000000 ;stroke-dashoffset:0.0000000;stroke-opacity:1.0000000" />
      <rect
         y="1.6718611"
         x="0.021667968"
         height="868.93915"
         width="2296.2820"
         id="rect3410"
         style="opacity:1.0000000;fill:none;fill-opacity:1.0000000;fill-rule:evenodd;stroke:none;stroke-width:3.0801980;stroke-linecap:square;stroke-linejoin:miter;stroke-miterlimit:4.0000000;stroke-dasharray:9.2405943 3.0801981 ;stroke-dashoffset:0.0000000;stroke-opacity:1.0000000" />
    </g>
  </g>
</svg>
